<svg width="260" height="40" viewBox="0 0 260 40" class="css-1j8o68f"><defs id="SvgjsDefs1182"></defs><g id="SvgjsG1183" featurekey="symbolFeature-0" transform="matrix(1.25,0,0,1.25,0,-0.01374959945678711)" fill="#ffffff"><g xmlns="http://www.w3.org/2000/svg" display="none"><rect x="-26.591" y="-65.699" display="inline" fill="#ffffff" width="240.181" height="241.399"></rect></g><g xmlns="http://www.w3.org/2000/svg" display="none"><path display="inline" d="M16,1.425l14.586,14.586L16,30.596L1.414,16.011L16,1.425 M16,0.011l-16,16l16,16l16-16L16,0.011   L16,0.011z"></path><path display="inline" d="M16,9.901l6.11,6.11L16,22.121l-6.11-6.11L16,9.901 M16,8.486l-7.524,7.524L16,23.535l7.524-7.524   L16,8.486L16,8.486z"></path></g><g xmlns="http://www.w3.org/2000/svg" display="none"><g display="inline"><g><rect x="5.186" y="5.197" transform="matrix(0.7071 -0.7071 0.7071 0.7071 -6.635 16.0031)" fill="#ffffff" width="21.628" height="21.628"></rect></g><g><path d="M16,1.425l14.586,14.586L16,30.596L1.414,16.011L16,1.425 M16,0.011l-16,16l16,16l16-16L16,0.011L16,0.011z"></path></g></g><g display="inline"><g><rect x="11.179" y="11.19" transform="matrix(0.7071 -0.7071 0.7071 0.7071 -6.635 16.0031)" fill="#ffffff" width="9.641" height="9.641"></rect></g><g><g><path d="M16,9.901l6.11,6.11L16,22.121l-6.11-6.11L16,9.901 M16,8.486l-7.524,7.524L16,23.535l7.524-7.524L16,8.486L16,8.486z"></path></g></g></g></g><g xmlns="http://www.w3.org/2000/svg" display="none"><g display="inline"><rect x="4.686" y="4.697" transform="matrix(0.7071 -0.7071 0.7071 0.7071 -6.6349 16.0031)" fill="#ffffff" width="22.627" height="22.627"></rect></g><g display="inline"><rect x="10.68" y="10.69" transform="matrix(0.7071 -0.7071 0.7071 0.7071 -6.6349 16.0031)" fill="#ffffff" width="10.641" height="10.641"></rect></g></g><g xmlns="http://www.w3.org/2000/svg"><g><path d="M32,16.011l-16-16l-16,16l16,16L32,16.011z M16,10.709l5.302,5.302L16,21.312l-5.302-5.302L16,10.709z"></path></g></g></g><g id="SvgjsG1184" featurekey="nameFeature-0" transform="matrix(0.983477573759505,0,0,0.983477573759505,58.30841831051681,-5.565696492511931)" fill="#ffffff"><path d="M36.44 40 l-8.52 0 l0.08 -20.48 l-5.64 20.48 l-6.64 0 l-5.56 -20.48 l0.04 20.48 l-8.48 0 l0 -28.24 l12.8 0 l4.6 17.76 l4.52 -17.76 l12.8 0 l0 28.24 z M63.28 29.68 c0 1.12 -0.2 4.68 -2.68 7.44 c-1.44 1.6 -4.52 3.68 -9.68 3.68 c-1.2 0 -4.92 -0.04 -7.96 -2.44 c-1.52 -1.2 -3.84 -3.84 -3.84 -8.56 c0 -2.88 0.88 -5.72 2.84 -7.84 c1.4 -1.52 4.36 -3.6 9.4 -3.56 c1.08 0 5.36 0.12 8.44 2.8 c2.32 2.04 3.48 5.4 3.48 8.48 z M54.96 29.48 c0 -3.12 -1 -4.56 -2.48 -5.08 c-0.6 -0.2 -1.12 -0.2 -1.36 -0.2 c-1.44 0.04 -2.24 0.76 -2.6 1.16 c-0.64 0.68 -1.2 2.08 -1.2 4.2 c0 2.04 0.52 3.44 1.04 4.16 c0.32 0.44 0.76 0.8 1.24 1 c0.24 0.12 0.84 0.28 1.56 0.28 c0.96 0 1.84 -0.28 2.48 -0.92 c0.72 -0.72 1.32 -2.28 1.32 -4.6 z M86.6 19.28 l-6.88 20.72 l-8.76 0 l-6.92 -20.72 l8.72 0 l2.52 12.8 l2.68 -12.8 l8.64 0 z M96.56 17.24 l-8.24 0 l0 -5.48 l8.24 0 l0 5.48 z M96.56 40 l-8.24 0 l0 -20.72 l8.24 0 l0 20.72 z M121.83999999999999 31.119999999999997 l-14.44 0 s0 0.96 0.2 1.6 c0.28 0.8 1.08 2.32 3.28 2.28 c1.28 0 1.96 -0.44 2.36 -0.8 c0.84 -0.68 1.24 -1.6 1.4 -1.88 l6.76 2.84 c-0.2 0.32 -0.44 0.76 -1 1.4 c-1.44 1.68 -3.08 2.6 -3.8 2.96 c-1 0.48 -3.16 1.32 -6.12 1.32 c-1.72 0 -3.36 -0.24 -4.92 -0.88 c-4.28 -1.76 -6.56 -5.92 -6.56 -10.44 c0 -4.28 1.96 -6.92 3.16 -8.08 c2.96 -2.84 7.08 -3.04 8.24 -3.04 c1.4 0 5.64 0.2 8.64 3.44 c1 1.08 1.76 2.44 2.2 3.84 c0.56 1.8 0.6 3.56 0.6 5.44 z M113.47999999999999 26.759999999999998 c-0.04 -0.24 -0.04 -0.64 -0.2 -1.16 c-0.56 -1.72 -2.08 -1.96 -2.72 -1.96 c-0.64 0.04 -1.04 0.2 -1.28 0.32 c-1.52 0.68 -1.72 2.36 -1.8 2.8 l6 0 z M143.39999999999998 33.08 c0 1.2 -0.24 2.28 -0.84 3.36 c-2.36 4.28 -7.88 4.36 -9 4.36 c-3.08 0 -6.24 -0.88 -8.84 -2.52 c-0.8 -0.48 -1.52 -1.08 -2.28 -1.64 l4.64 -4.2 c0.4 0.36 0.76 0.68 1.16 1 c0.68 0.48 2.72 1.76 5.24 1.76 c0.2 0 0.84 0 1.36 -0.24 c0.6 -0.28 0.8 -0.8 0.8 -1.08 c0 -0.24 -0.12 -0.44 -0.16 -0.48 c-0.52 -0.8 -1.44 -0.72 -3 -1 c-0.48 -0.08 -2.44 -0.48 -4.08 -1.04 c-1.92 -0.64 -3.4 -1.4 -4.32 -3.36 c-0.36 -0.8 -0.56 -1.6 -0.56 -2.48 c0 -1.8 0.84 -3.16 1.2 -3.68 c1.2 -1.68 3.56 -3.4 8.2 -3.4 c2.48 0 5.64 0.52 7.88 1.68 c0.76 0.4 1.32 0.8 2 1.32 l-4.44 4.04 c-0.6 -0.4 -2.8 -2 -5.32 -2 c-0.16 0 -0.72 0 -1.16 0.2 c-0.48 0.24 -0.6 0.68 -0.6 0.88 c0 0.52 0.44 0.76 0.56 0.8 c0.36 0.2 1.16 0.36 2.16 0.6 c3.04 0.76 4.8 1.04 6.12 1.72 c1.04 0.52 3.28 2.12 3.28 5.4 z M172.48 20.96 c0 0.56 -0.04 2.36 -0.68 4.04 c-0.36 0.96 -1.8 3.92 -4.92 5.08 c-1.68 0.64 -3.36 0.72 -5.12 0.72 l-6.88 0 l0 9.2 l-8.96 0 l0 -28.24 l16.12 0 c2.76 0 5.32 0.2 7.52 2.12 c2.84 2.44 2.92 5.84 2.92 7.08 z M163.6 21.24 c0 -0.32 0 -1.16 -0.44 -1.96 c-0.88 -1.6 -2.76 -1.6 -3.24 -1.6 l-5.04 0 l0 7.2 l5.08 0 c0.12 0 1 -0.04 1.6 -0.24 c0.8 -0.28 2.04 -1.16 2.04 -3.4 z M182.39999999999998 40 l-8.28 0 l0 -28.24 l8.28 0 l0 28.24 z M205.07999999999998 33.08 c0 1.2 -0.24 2.28 -0.84 3.36 c-2.36 4.28 -7.88 4.36 -9 4.36 c-3.08 0 -6.24 -0.88 -8.84 -2.52 c-0.8 -0.48 -1.52 -1.08 -2.28 -1.64 l4.64 -4.2 c0.4 0.36 0.76 0.68 1.16 1 c0.68 0.48 2.72 1.76 5.24 1.76 c0.2 0 0.84 0 1.36 -0.24 c0.6 -0.28 0.8 -0.8 0.8 -1.08 c0 -0.24 -0.12 -0.44 -0.16 -0.48 c-0.52 -0.8 -1.44 -0.72 -3 -1 c-0.48 -0.08 -2.44 -0.48 -4.08 -1.04 c-1.92 -0.64 -3.4 -1.4 -4.32 -3.36 c-0.36 -0.8 -0.56 -1.6 -0.56 -2.48 c0 -1.8 0.84 -3.16 1.2 -3.68 c1.2 -1.68 3.56 -3.4 8.2 -3.4 c2.48 0 5.64 0.52 7.88 1.68 c0.76 0.4 1.32 0.8 2 1.32 l-4.44 4.04 c-0.6 -0.4 -2.8 -2 -5.32 -2 c-0.16 0 -0.72 0 -1.16 0.2 c-0.48 0.24 -0.6 0.68 -0.6 0.88 c0 0.52 0.44 0.76 0.56 0.8 c0.36 0.2 1.16 0.36 2.16 0.6 c3.04 0.76 4.8 1.04 6.12 1.72 c1.04 0.52 3.28 2.12 3.28 5.4 z"></path></g></svg>